<svg width="75" height="44" viewBox="0 0 75 44" fill="none" xmlns="http://www.w3.org/2000/svg">
<path fill-rule="evenodd" clip-rule="evenodd" d="M6.25 3.125C6.25 1.39912 4.85088 0 3.125 0C1.39911 0 0 1.39912 0 3.125V40.625C0 42.3509 1.39911 43.75 3.125 43.75C4.85088 43.75 6.25 42.3509 6.25 40.625V34.375H68.75V40.625C68.75 42.3509 70.1491 43.75 71.875 43.75C73.6009 43.75 75 42.3509 75 40.625V15.625C75 8.72144 69.4034 3.125 62.5 3.125H40.625C37.1731 3.125 34.375 5.92322 34.375 9.375V28.125H6.25V3.125ZM68.75 15.625V28.125H40.625V9.375H62.5C65.9519 9.375 68.75 12.1732 68.75 15.625Z" fill="#B8C1D1"/>
<path fill-rule="evenodd" clip-rule="evenodd" d="M20.3125 25C26.3531 25 31.25 20.1031 31.25 14.0625C31.25 8.02188 26.3531 3.125 20.3125 3.125C14.2719 3.125 9.375 8.02188 9.375 14.0625C9.375 20.1031 14.2719 25 20.3125 25ZM20.3125 18.9997C17.5857 18.9997 15.3752 16.7894 15.3752 14.0625C15.3752 11.3357 17.5857 9.12519 20.3125 9.12519C23.0393 9.12519 25.2498 11.3357 25.2498 14.0625C25.2498 16.7894 23.0393 18.9997 20.3125 18.9997Z" fill="#B8C1D1"/>
</svg>
