<svg width="65" height="65" viewBox="0 0 65 65" fill="none" xmlns="http://www.w3.org/2000/svg">
<path d="M2.5 22.5H62.5M15.8333 2.5V9.16667M49.1667 2.5V9.16667M12.5 32.5H19.1667M29.1667 32.5H35.8333M45.8333 32.5H52.5M12.5 42.5H19.1667M29.1667 42.5H35.8333M45.8333 42.5H52.5M12.5 52.5H19.1667M29.1667 52.5H35.8333M45.8333 52.5H52.5M13.1667 62.5H51.8333C55.567 62.5 57.434 62.5 58.86 61.7733C60.1143 61.1343 61.1343 60.1143 61.7733 58.86C62.5 57.434 62.5 55.567 62.5 51.8333V19.8333C62.5 16.0996 62.5 14.2328 61.7733 12.8067C61.1343 11.5523 60.1143 10.5324 58.86 9.8933C57.434 9.16667 55.567 9.16667 51.8333 9.16667H13.1667C9.433 9.16667 7.56613 9.16667 6.14007 9.8933C4.88563 10.5324 3.86577 11.5523 3.22663 12.8067C2.5 14.2328 2.5 16.0996 2.5 19.8333V51.8333C2.5 55.567 2.5 57.434 3.22663 58.86C3.86577 60.1143 4.88563 61.1343 6.14007 61.7733C7.56613 62.5 9.43297 62.5 13.1667 62.5Z" stroke="#B8C1D1" stroke-width="5" stroke-linecap="round"/>
</svg>
