<svg width="70" height="70" viewBox="0 0 70 70" fill="none" xmlns="http://www.w3.org/2000/svg">
<path fill-rule="evenodd" clip-rule="evenodd" d="M35 50C43.2843 50 50 43.2843 50 35C50 26.7158 43.2843 20 35 20C26.7158 20 20 26.7158 20 35C20 43.2843 26.7158 50 35 50ZM45 35C45 40.5228 40.5228 45 35 45C29.4773 45 25 40.5228 25 35C25 29.4773 29.4773 25 35 25C40.5228 25 45 29.4773 45 35Z" fill="#B8C1D1"/>
<path fill-rule="evenodd" clip-rule="evenodd" d="M0 32.499V37.499C0 41.3695 2.93153 44.555 6.69523 44.9565C7.0147 45.8647 7.37655 46.7528 7.77833 47.6183C5.3121 50.565 5.4634 54.96 8.23228 57.729L11.7678 61.2645C14.4736 63.9703 18.7326 64.1765 21.6751 61.8827C22.761 62.422 23.8846 62.8975 25.0408 63.3045C25.4423 67.0683 28.6277 70 32.4983 70H37.4983C41.3677 70 44.5527 67.0697 44.9552 63.307C46.006 62.9375 47.0298 62.5115 48.0228 62.0323C50.9558 64.166 55.086 63.91 57.7315 61.2645L61.267 57.729C63.9125 55.0835 64.1685 50.9532 62.035 48.0202C62.5135 47.0282 62.9393 46.0058 63.3085 44.956C67.0705 44.5528 70 41.368 70 37.499V32.499C70 28.63 67.0705 25.4455 63.3085 25.0423C62.9013 23.8844 62.4253 22.7593 61.8853 21.6721C64.177 18.7297 63.9705 14.4722 61.2652 11.767L57.7297 8.23147C54.9615 5.46327 50.5678 5.31138 47.6213 7.77575C46.7543 7.37338 45.8648 7.01103 44.955 6.69118C44.5518 2.92943 41.367 0 37.4983 0H32.4983C28.6285 0 25.4433 2.93077 25.041 6.69375C24.0195 7.05325 23.0234 7.46632 22.0563 7.92952C19.1111 5.30627 14.5941 5.4069 11.7695 8.23147L8.234 11.767C5.40943 14.5916 5.3088 19.1086 7.93212 22.0538C7.46842 23.0219 7.05498 24.0191 6.69523 25.0417C2.93153 25.4432 0 28.6288 0 32.499ZM39.9983 7.5C39.9983 6.1193 38.879 5 37.4983 5H32.4983C31.1175 5 29.9983 6.1193 29.9983 7.5V8.45672C29.9983 9.64557 29.1565 10.6569 28.0148 10.9886C26.2415 11.5037 24.5493 12.21 22.9624 13.0837C21.9209 13.657 20.6106 13.537 19.77 12.6964L18.8406 11.767C17.8643 10.7907 16.2814 10.7907 15.3051 11.767L11.7695 15.3025C10.7932 16.2788 10.7932 17.8618 11.7695 18.8381L12.6989 19.7675C13.5396 20.6081 13.6596 21.9184 13.0863 22.9599C12.2121 24.5478 11.5055 26.2408 10.9903 28.0153C10.6588 29.1573 9.64735 29.999 8.45835 29.999H7.5C6.1193 29.999 5 31.1185 5 32.499V37.499C5 38.8798 6.1193 39.999 7.5 39.999H8.45835C9.64735 39.999 10.6587 40.841 10.9903 41.9828C11.4739 43.6485 12.126 45.2423 12.9271 46.7448C13.48 47.7818 13.3524 49.0733 12.5214 49.9043L11.7678 50.658C10.7915 51.6343 10.7915 53.217 11.7678 54.1935L15.3033 57.729C16.2796 58.7053 17.8626 58.7053 18.8389 57.729L19.4472 57.1208C20.2975 56.2703 21.6264 56.1582 22.672 56.752C24.3424 57.701 26.1328 58.463 28.0148 59.0098C29.1565 59.3413 29.9983 60.3528 29.9983 61.5415V62.5C29.9983 63.8807 31.1175 65 32.4983 65H37.4983C38.879 65 39.9983 63.8807 39.9983 62.5V61.5435C39.9983 60.3545 40.8403 59.343 41.9823 59.0115C43.758 58.4963 45.4523 57.7893 47.041 56.9145C48.0825 56.3413 49.3927 56.4612 50.2335 57.302L50.6605 57.729C51.6368 58.7053 53.2198 58.7053 54.196 57.729L57.7315 54.1935C58.7077 53.217 58.7077 51.6343 57.7315 50.658L57.3045 50.231C56.4638 49.3902 56.3437 48.08 56.9172 47.0385C57.7915 45.4505 58.498 43.7575 59.0133 41.9828C59.3448 40.841 60.3562 39.999 61.5452 39.999H62.5C63.8807 39.999 65 38.8798 65 37.499V32.499C65 31.1185 63.8807 29.999 62.5 29.999H61.5452C60.3562 29.999 59.3448 29.1573 59.0133 28.0153C58.4665 26.1323 57.7043 24.3407 56.7548 22.6693C56.1608 21.6237 56.273 20.2948 57.1233 19.4445L57.7297 18.8381C58.706 17.8618 58.706 16.2788 57.7297 15.3025L54.1943 11.767C53.218 10.7907 51.635 10.7907 50.6588 11.767L49.907 12.5187C49.076 13.3497 47.7843 13.4774 46.7473 12.9245C45.244 12.1229 43.649 11.4704 41.9823 10.9867C40.8403 10.6553 39.9983 9.6438 39.9983 8.45468V7.5Z" fill="#B8C1D1"/>
</svg>
