<svg width="65" height="61" viewBox="0 0 65 61" fill="none" xmlns="http://www.w3.org/2000/svg">
<path d="M58.9706 30.5H25.4412M51.9118 41L62.5 30.5L51.9118 20M34.2647 13V9.5C34.2647 7.64348 33.521 5.86301 32.1972 4.55025C30.8734 3.2375 29.078 2.5 27.2059 2.5H9.55882C7.68671 2.5 5.89127 3.2375 4.56748 4.55025C3.2437 5.86301 2.5 7.64348 2.5 9.5V51.5C2.5 53.3565 3.2437 55.137 4.56748 56.4497C5.89127 57.7625 7.68671 58.5 9.55882 58.5H27.2059C29.078 58.5 30.8734 57.7625 32.1972 56.4497C33.521 55.137 34.2647 53.3565 34.2647 51.5V48" stroke="#B8C1D1" stroke-width="5" stroke-linecap="round" stroke-linejoin="round"/>
</svg>
