<svg width="75" height="68" viewBox="0 0 75 68" fill="none" xmlns="http://www.w3.org/2000/svg">
<path d="M54.6398 54.6867L39.8836 47.3837C45.368 43.5291 46.8586 35.9539 46.8586 31.7057V22.8638C46.8586 17.0096 38.1516 10.4897 29.4047 10.4897C20.6625 10.4897 11.7234 17.0096 11.7234 22.8638V31.7057C11.7234 35.5686 13.5516 43.3804 19.0922 47.3502L3.95625 54.6846C3.95625 54.6846 0 56.2591 0 58.2209V63.5265C0 65.4799 1.77422 67.0628 3.95625 67.0628H54.6398C56.8219 67.0628 58.5961 65.4778 58.5961 63.5265V58.2209C58.5961 56.1397 54.6375 54.6846 54.6375 54.6846L54.6398 54.6867ZM53.9086 62.8795H4.6875V59.1359C5.02266 58.916 5.49375 58.6627 5.86406 58.5119C5.97422 58.468 6.08437 58.4198 6.18984 58.3654L21.3281 51.031C22.7086 50.361 23.6227 49.1215 23.7633 47.7249C23.9039 46.3284 23.25 44.9612 22.0266 44.0839C18.0961 41.2678 16.4109 35.0347 16.4109 31.7078V22.8658C16.4109 19.8571 22.7578 14.6793 29.4047 14.6793C36.1758 14.6793 42.1711 19.788 42.1711 22.8658V31.7078C42.1711 34.9866 41.032 41.249 36.9867 44.0923C35.7492 44.9633 35.0813 46.3326 35.2125 47.7333C35.3438 49.134 36.2578 50.3861 37.6383 51.0603L52.3945 58.3633C52.5234 58.4261 52.6898 58.4952 52.8258 58.5496C53.1727 58.6815 53.5969 58.8993 53.9086 59.0919V62.8795ZM71.0437 44.2619L56.0672 36.9589C61.5516 33.1043 63.2625 25.5291 63.2625 21.2809V12.439C63.2625 6.58484 54.3375 0 45.5906 0C39.907 0 34.0969 2.76166 30.7148 6.29591C32.6437 6.40269 34.7695 6.40478 36.607 6.92822C39.0773 5.20925 42.1992 4.18959 45.5906 4.18959C52.3617 4.18959 58.575 9.36116 58.575 12.4411V21.283C58.575 24.5618 57.2156 30.8242 53.1727 33.6675C51.9328 34.5385 51.2672 35.9078 51.3984 37.3085C51.5297 38.7113 52.4414 39.9613 53.8242 40.6355L68.8008 47.9385C68.9297 48.0013 69.0961 48.0704 69.232 48.1248C69.5789 48.2567 70.0031 48.4745 70.3148 48.6671V52.3919H60.8531C62.2828 53.355 62.7141 54.7327 63.2695 56.5794H71.0484C73.2305 56.5794 75.0047 54.9944 75.0047 53.0431V47.8024C75.0023 45.7191 71.0437 44.2619 71.0437 44.2619Z" fill="#B8C1D1"/>
</svg>
